<svg version="1.1" id="Layer_1" xmlns="http://www.w3.org/2000/svg" xmlns:xlink="http://www.w3.org/1999/xlink" x="0px" y="0px"
	 width="100%" viewBox="0 0 2000 2000" enable-background="new 0 0 2000 2000" xml:space="preserve">
<path fill="#FFFFFF" opacity="1.000000" stroke="none" 
	d="
M1384.000000,2001.000000 
	C922.666687,2001.000000 461.833344,2001.000000 1.000000,2001.000000 
	C1.000000,1334.333374 1.000000,667.666687 1.000000,1.000000 
	C667.666687,1.000000 1334.333374,1.000000 2001.000000,1.000000 
	C2001.000000,667.666687 2001.000000,1334.333374 2001.000000,2001.000000 
	C1795.500000,2001.000000 1590.000000,2001.000000 1384.000000,2001.000000 
M1117.922485,1560.072510 
	C1117.922485,1301.495850 1117.922485,1042.919312 1117.922485,784.000000 
	C1120.534546,784.000000 1122.503296,784.005371 1124.472168,783.999268 
	C1232.892822,783.664795 1341.314453,783.476318 1449.733154,782.818542 
	C1464.196045,782.730835 1478.713257,780.763000 1493.083130,778.781311 
	C1513.562134,775.957336 1533.431274,770.365601 1552.791138,763.145142 
	C1616.309937,739.455078 1667.471680,699.669800 1706.223511,644.128906 
	C1740.224854,595.396545 1758.597534,541.045227 1762.834106,481.879272 
	C1763.374268,474.335236 1762.907959,466.719116 1762.907959,459.000000 
	C1760.919800,459.000000 1759.593262,458.999969 1758.266846,458.999969 
	C1490.792725,459.000000 1223.318604,458.978546 955.844543,459.092590 
	C946.795288,459.096466 937.627563,459.772827 928.716309,461.305908 
	C849.338013,474.962158 793.000366,542.168152 793.000122,622.850586 
	C792.999573,820.164856 792.949768,1017.479126 793.087341,1214.793335 
	C793.099487,1232.166016 793.870911,1249.573120 795.168091,1266.898438 
	C796.103821,1279.396240 797.800293,1291.930786 800.362610,1304.197144 
	C811.891724,1359.389160 836.045471,1408.460083 873.141663,1451.008789 
	C911.172302,1494.629395 957.457336,1526.112061 1012.359741,1544.624512 
	C1046.270996,1556.058960 1081.082520,1562.395264 1117.512695,1561.882324 
	C1117.607056,1561.588989 1117.701416,1561.295532 1117.922485,1560.072510 
M582.500000,459.000000 
	C570.227112,459.334625 557.955750,459.746735 545.681030,459.987457 
	C521.781982,460.456268 498.252594,463.668549 475.173492,469.813171 
	C410.892456,486.927399 356.942657,520.669434 313.574921,571.121338 
	C283.946167,605.590027 263.389709,644.945862 250.586227,688.538452 
	C243.561722,712.455078 240.649796,736.987549 238.079941,761.608215 
	C237.554932,766.638062 238.003906,771.769531 238.003906,776.781860 
	C407.226959,776.781860 575.635620,776.781860 744.653992,776.781860 
	C744.653992,774.618469 744.653992,772.667358 744.653992,770.716187 
	C744.654114,722.397583 744.594299,674.078857 744.708008,625.760498 
	C744.729187,616.786194 744.893860,607.748169 745.940552,598.851074 
	C751.089661,555.082642 769.138489,517.196106 799.438049,485.322815 
	C808.297485,476.003204 818.377441,467.843872 828.065247,459.000000 
	C746.623230,459.000000 665.061646,459.000000 582.500000,459.000000 
z"/>
<path fill="#0582C7" opacity="1.000000" stroke="none" 
	d="
M1116.997314,1561.833252 
	C1081.082520,1562.395264 1046.270996,1556.058960 1012.359741,1544.624512 
	C957.457336,1526.112061 911.172302,1494.629395 873.141663,1451.008789 
	C836.045471,1408.460083 811.891724,1359.389160 800.362610,1304.197144 
	C797.800293,1291.930786 796.103821,1279.396240 795.168091,1266.898438 
	C793.870911,1249.573120 793.099487,1232.166016 793.087341,1214.793335 
	C792.949768,1017.479126 792.999573,820.164856 793.000122,622.850586 
	C793.000366,542.168152 849.338013,474.962158 928.716309,461.305908 
	C937.627563,459.772827 946.795288,459.096466 955.844543,459.092590 
	C1223.318604,458.978546 1490.792725,459.000000 1758.266846,458.999969 
	C1759.593262,458.999969 1760.919800,459.000000 1762.907959,459.000000 
	C1762.907959,466.719116 1763.374268,474.335236 1762.834106,481.879272 
	C1758.597534,541.045227 1740.224854,595.396545 1706.223511,644.128906 
	C1667.471680,699.669800 1616.309937,739.455078 1552.791138,763.145142 
	C1533.431274,770.365601 1513.562134,775.957336 1493.083130,778.781311 
	C1478.713257,780.763000 1464.196045,782.730835 1449.733154,782.818542 
	C1341.314453,783.476318 1232.892822,783.664795 1124.472168,783.999268 
	C1122.503296,784.005371 1120.534546,784.000000 1117.922485,784.000000 
	C1117.922485,1042.919312 1117.922485,1301.495850 1117.686279,1560.633423 
	C1117.240479,1561.365601 1117.089478,1561.578613 1116.997314,1561.833252 
z"/>
<path fill="#BED62F" opacity="1.000000" stroke="none" 
	d="
M583.000000,459.000000 
	C665.061646,459.000000 746.623230,459.000000 828.065247,459.000000 
	C818.377441,467.843872 808.297485,476.003204 799.438049,485.322815 
	C769.138489,517.196106 751.089661,555.082642 745.940552,598.851074 
	C744.893860,607.748169 744.729187,616.786194 744.708008,625.760498 
	C744.594299,674.078857 744.654114,722.397583 744.653992,770.716187 
	C744.653992,772.667358 744.653992,774.618469 744.653992,776.781860 
	C575.635620,776.781860 407.226959,776.781860 238.003906,776.781860 
	C238.003906,771.769531 237.554932,766.638062 238.079941,761.608215 
	C240.649796,736.987549 243.561722,712.455078 250.586227,688.538452 
	C263.389709,644.945862 283.946167,605.590027 313.574921,571.121338 
	C356.942657,520.669434 410.892456,486.927399 475.173492,469.813171 
	C498.252594,463.668549 521.781982,460.456268 545.681030,459.987457 
	C557.955750,459.746735 570.227112,459.334625 583.000000,459.000000 
z"/>
<path fill="#1E8ECC" opacity="1.000000" stroke="none" 
	d="
M1117.255005,1561.857788 
	C1117.089478,1561.578613 1117.240479,1561.365601 1117.623047,1561.098267 
	C1117.701416,1561.295532 1117.607056,1561.588989 1117.255005,1561.857788 
z"/>
</svg>